<?xml version="1.0" encoding="utf-8"?>
<!-- Generator: Adobe Illustrator 21.0.1, SVG Export Plug-In . SVG Version: 6.00 Build 0)  -->
<svg version="1.1" id="Layer_1" xmlns="http://www.w3.org/2000/svg" xmlns:xlink="http://www.w3.org/1999/xlink" x="0px" y="0px"
	 viewBox="0 0 76 80" style="enable-background:new 0 0 76 80;" xml:space="preserve">
<style type="text/css">
	.st0{fill:#37B34A;}
</style>
<g>
	<path class="st0" d="M67.6,13c-3.3-0.8-6.6-1.6-9.9-2.4c-0.7-0.2-1.3-0.4-1.5-1.2c-0.4-1.3-1.3-2.1-2.4-2.7
		c-4.2-1.9-8.5-3.9-13.1-4.4c-2.1-0.3-4.3-0.4-6.5,0.2c0.5,0.8,0.9,1.4,1.3,2.1c2.3,3.7,4.3,7.6,5.8,11.6c1.3,3.6,2.3,7.2,2.3,11
		c0,2.1-1.1,3.6-2.9,4.1c-5.7,1.7-11.2,1.3-16.4-1.8c-1.5-0.9-2.9-2.1-4.4-3.5c0,1.6,0,2.9,0,4.2c0,3.7-1.2,7-3.2,10
		c-2,3-4.4,5.7-7.2,8c-1.4,1.1-2.3,2.4-3,4c-0.3,0.7-0.3,1.2,0,1.8c1.6,3.1,3.5,6.1,5.7,8.8c2.5,3,5.4,5.7,8.8,8
		c0.1-0.5,0.2-0.9,0.2-1.3c0-0.2,0-0.4,0.1-0.6c0.9-7.1,3.9-13.1,9.7-17.5c0.5-0.4,0.7-0.8,0.7-1.4c0.2-2.6,0.5-5.2,1.4-7.7
		c0.7-2,1.7-3.8,3.6-5c2.8-1.7,5.3-0.5,5.6,2.8c0.2,1.9,1,3.5,2.2,4.9c0.9,1,2.3,0.5,3.3,0.9c0.7,0.3,0.8-0.1,0.9-0.7
		c0.2-2.6,0.5-5.2,0.8-7.9c0.2-2.3,1.2-3.4,3.4-3.8c1.4-0.3,2.9-0.6,4.3-1c7.4-2.4,12.6-6.9,13.6-15.1C70.9,15,70,13.6,67.6,13z
		 M50.1,16.1c-0.9,0-1.5-0.5-1.5-1.4c0-0.9,0.5-1.4,1.5-1.5c0.9,0.1,1.4,0.5,1.4,1.5C51.4,15.6,50.9,16.1,50.1,16.1z"/>
	<path class="st0" d="M60.7,62.2c-1.9-2.1-3.7-4.2-4.3-7c-0.3-1.3-0.9-2.3-1.8-3.1c-2.6-2.4-5.9-3.3-9.3-3.7c-1-0.1-1.7-0.4-2.3-1.2
		c-1.7-1.9-2.6-4.1-2.9-6.5c-0.2-1.3-0.9-1.6-2.1-1c-0.8,0.4-1.4,1-1.9,1.8c-1.6,2.5-2.1,5.4-2.2,8.2c-0.1,2-0.5,3.3-2.3,4.7
		c-5.3,4-7.7,9.7-8.4,16.2c-0.2,1.3,0.2,1.9,1.4,2.5c5.6,3,11.6,4.8,17.9,5.2c0.2,0,0.3,0,0.5,0c1.7,0.1,1.8,0.1,1.7-1.5
		c-0.1-1.3,0.4-2,1.6-2.4c0.7-0.2,1.4-0.5,2.1-0.8c2.6-0.9,5.1-2.2,8-2.5c1.5-0.2,2.6-1.1,3.5-2.3c0.7-1.1,1.5-2.2,2.2-3.3
		c0.5-0.8,0.5-1.4-0.2-2.1C61.5,63,61.1,62.6,60.7,62.2z M52.9,57.6c-0.1,0.9-0.6,1.4-1.5,1.3c-0.9,0-1.4-0.6-1.3-1.4
		c0-0.9,0.6-1.4,1.6-1.4C52.4,56.2,53,56.7,52.9,57.6z"/>
	<path class="st0" d="M38.6,29.1c2.1-0.5,2.2-0.7,2.2-2.8c-0.1-0.9-0.2-1.7-0.3-2.6c-1.3-7.5-4.9-13.9-8.9-20.2
		c-0.2-0.4-0.5-0.3-0.8-0.2c-3.3,1.6-6.1,3.8-7.7,7.1c-1.7,3.5-2.4,7.4-2.9,11.3c0,0.4,0.1,0.7,0.3,1C24.7,28.4,31.8,30.9,38.6,29.1
		z"/>
</g>
</svg>
