<?xml version="1.0" encoding="utf-8"?>
<!-- Generator: Adobe Illustrator 21.0.1, SVG Export Plug-In . SVG Version: 6.00 Build 0)  -->
<svg version="1.1" id="Layer_1" xmlns="http://www.w3.org/2000/svg" xmlns:xlink="http://www.w3.org/1999/xlink" x="0px" y="0px"
	 viewBox="0 0 76 80" style="enable-background:new 0 0 76 80;" xml:space="preserve">
<style type="text/css">
	.st0{fill:#37B34A;}
</style>
<g>
	<path class="st0" d="M15.4,46.6c-4.2,0-7.6,3.4-7.6,7.6c0,4.2,3.4,7.6,7.6,7.6c4.2,0,7.6-3.4,7.6-7.6C23,50,19.6,46.6,15.4,46.6z
		 M15.4,59.4c-2.9,0-5.2-2.3-5.2-5.2c0-2.9,2.3-5.2,5.2-5.2c2.9,0,5.2,2.3,5.2,5.2C20.6,57.1,18.3,59.4,15.4,59.4z"/>
	<path class="st0" d="M72,35.5l-9.9-3.4l-5.7-9.7c-1.9-3-3.2-4-9-4H5.1c-2.2,0-4,1.8-4,4v27.2c0,2.2,1.8,4,4,4h2.1
		c0.3-4.4,3.9-7.9,8.4-7.9c4.5,0,8.1,3.5,8.4,7.9h28.8c0.2-2.6,1.5-5.1,3.9-6.6c3.9-2.5,9.1-1.3,11.6,2.6c0.8,1.2,1.2,2.6,1.3,4H72
		c2.2,0,4-1.8,4-4V39.5C76,37.3,74.4,36.3,72,35.5z M20.9,23.5c1.6-0.2,3,1.2,3.3,3.2c0.3,2-0.8,3.7-2.4,3.9c-1.6,0.2-3-1.2-3.3-3.2
		C18.3,25.5,19.3,23.7,20.9,23.5z M14.1,20.2c1.5-0.4,3.1,0.9,3.6,2.8c0.5,1.9-0.4,3.8-1.9,4.2c-1.5,0.4-3.1-0.9-3.6-2.8
		C11.7,22.5,12.6,20.6,14.1,20.2z M6.1,24.8c1.1-1.1,3.1-0.9,4.6,0.5c1.4,1.4,1.7,3.4,0.6,4.5c-1.1,1.1-3.1,0.9-4.6-0.5
		C5.3,27.9,5,25.9,6.1,24.8z M11.2,36.7c-1,1.2-3,1.2-4.6,0c-0.5-0.4-0.8-0.8-1.1-1.3l0,0c-0.6-1.1-0.7-2.3,0-3.2c1-1.2,3-1.2,4.6,0
		C11.6,33.5,12.1,35.5,11.2,36.7z M22.8,37.3c-1.2,0.3-3.4,1.5-3.4,1.5s-2.2,1.3-3.1,2.2c-0.9,0.9-3.6,1.8-4.4-0.7
		c-0.8-2.5,1.4-3.6,0.3-7c-1.1-3.3,1.5-4.6,1.5-4.6s2.4-1.6,4.7,1.1c2.3,2.7,4.4,1.4,6.1,3.3C26.2,35.1,24,36.9,22.8,37.3z M57,33.2
		H38.8c-0.3,0-0.5-0.2-0.5-0.5V23c0-0.3,0.2-0.5,0.5-0.5h13.1c0.3,0,0.7,0.1,0.9,0.5l4.8,9.7C57.5,33,57.3,33.2,57,33.2z M75.3,45.6
		c0,0.7-0.6,1.3-1.3,1.3h-4.1c-0.7,0-1.3-0.6-1.3-1.3v-3c0-0.7,0.6-1.3,1.3-1.3H74c0.7,0,1.3,0.6,1.3,1.3V45.6z"/>
	<path class="st0" d="M61,46.6c-4.2,0-7.6,3.4-7.6,7.6c0,4.2,3.4,7.6,7.6,7.6c4.2,0,7.6-3.4,7.6-7.6C68.6,50,65.2,46.6,61,46.6z
		 M61,59.4c-2.9,0-5.2-2.3-5.2-5.2c0-2.9,2.3-5.2,5.2-5.2c2.9,0,5.2,2.3,5.2,5.2C66.2,57.1,63.9,59.4,61,59.4z"/>
</g>
</svg>
