<?xml version="1.0" encoding="utf-8"?>
<!-- Generator: Adobe Illustrator 21.0.1, SVG Export Plug-In . SVG Version: 6.00 Build 0)  -->
<svg version="1.1" id="Layer_1" xmlns="http://www.w3.org/2000/svg" xmlns:xlink="http://www.w3.org/1999/xlink" x="0px" y="0px"
	 viewBox="0 0 76 80" style="enable-background:new 0 0 76 80;" xml:space="preserve">
<style type="text/css">
	.st0{fill:#37B34A;}
	.st1{fill:none;}
</style>
<g>
	<path class="st0" d="M44,18.4c-1-0.2-1.9-0.5-2.9-0.7c-0.2,0-0.4-0.1-0.4-0.3c-0.1-0.4-0.4-0.6-0.7-0.8c-1.2-0.6-2.4-1.1-3.8-1.3
		c-0.6-0.1-1.2-0.1-1.9,0c0.1,0.2,0.2,0.4,0.4,0.6c0.7,1.1,1.2,2.2,1.7,3.4c0.4,1,0.7,2.1,0.7,3.2c0,0.6-0.3,1-0.8,1.2
		c-1.6,0.5-3.2,0.4-4.7-0.5c-0.4-0.3-0.8-0.6-1.3-1c0,0.5,0,0.8,0,1.2c0,1.1-0.3,2-0.9,2.9c-0.6,0.9-1.3,1.7-2.1,2.3
		c-0.4,0.3-0.7,0.7-0.9,1.1c-0.1,0.2-0.1,0.3,0,0.5c0.5,0.9,1,1.8,1.6,2.5c0.7,0.9,1.6,1.7,2.5,2.3c0-0.1,0-0.3,0.1-0.4
		c0-0.1,0-0.1,0-0.2c0.3-2.1,1.1-3.8,2.8-5.1c0.1-0.1,0.2-0.2,0.2-0.4c0.1-0.8,0.1-1.5,0.4-2.2c0.2-0.6,0.5-1.1,1-1.4
		c0.8-0.5,1.5-0.1,1.6,0.8c0.1,0.5,0.3,1,0.6,1.4c0.3,0.3,0.7,0.1,1,0.3c0.2,0.1,0.2,0,0.3-0.2c0.1-0.8,0.2-1.5,0.2-2.3
		c0.1-0.7,0.3-1,1-1.1c0.4-0.1,0.8-0.2,1.2-0.3c2.2-0.7,3.6-2,3.9-4.4C45,19,44.7,18.6,44,18.4z M39,19.3c-0.3,0-0.4-0.1-0.4-0.4
		c0-0.3,0.1-0.4,0.4-0.4c0.2,0,0.4,0.2,0.4,0.4C39.4,19.1,39.2,19.3,39,19.3z"/>
	<path class="st0" d="M42.1,32.6c-0.5-0.6-1.1-1.2-1.3-2c-0.1-0.4-0.3-0.7-0.5-0.9c-0.8-0.7-1.7-1-2.7-1.1c-0.3,0-0.5-0.1-0.7-0.3
		c-0.5-0.5-0.7-1.2-0.8-1.9c0-0.4-0.3-0.5-0.6-0.3c-0.2,0.1-0.4,0.3-0.5,0.5c-0.5,0.7-0.6,1.5-0.6,2.4c0,0.6-0.2,1-0.7,1.4
		c-1.5,1.2-2.2,2.8-2.4,4.7c0,0.4,0.1,0.6,0.4,0.7c1.6,0.9,3.3,1.4,5.2,1.5c0,0,0.1,0,0.1,0c0.5,0,0.5,0,0.5-0.4
		c0-0.4,0.1-0.6,0.5-0.7c0.2-0.1,0.4-0.2,0.6-0.2c0.8-0.3,1.5-0.6,2.3-0.7c0.4,0,0.8-0.3,1-0.7c0.2-0.3,0.4-0.6,0.6-0.9
		c0.2-0.2,0.1-0.4,0-0.6C42.3,32.9,42.2,32.8,42.1,32.6z M39.8,31.3c0,0.3-0.2,0.4-0.4,0.4c-0.3,0-0.4-0.2-0.4-0.4
		c0-0.3,0.2-0.4,0.5-0.4C39.7,30.9,39.8,31,39.8,31.3z"/>
	<path class="st0" d="M35.7,23.1c0.6-0.2,0.6-0.2,0.6-0.8c0-0.2,0-0.5-0.1-0.7c-0.4-2.2-1.4-4-2.6-5.9c-0.1-0.1-0.1-0.1-0.2,0
		c-1,0.5-1.8,1.1-2.2,2.1c-0.5,1-0.7,2.1-0.8,3.3c0,0.1,0,0.2,0.1,0.3C31.7,22.9,33.7,23.6,35.7,23.1z"/>
</g>
<g>
	<ellipse class="st1" cx="36" cy="26" rx="12.9" ry="12.9"/>
	<path class="st0" d="M36,1.8c-13.2,0-23.9,10.7-23.9,23.9C12.2,48.5,36,78.2,36,78.2s23.9-29.7,23.9-52.5
		C59.9,12.5,49.2,1.8,36,1.8z M36,38.9c-7.1,0-12.9-5.8-12.9-12.9c0-7.1,5.8-12.9,12.9-12.9c7.1,0,12.9,5.8,12.9,12.9
		C48.9,33.1,43.1,38.9,36,38.9z"/>
</g>
</svg>
