<?xml version="1.0" encoding="utf-8"?>
<!-- Generator: Adobe Illustrator 21.0.1, SVG Export Plug-In . SVG Version: 6.00 Build 0)  -->
<svg version="1.1" id="Layer_1" xmlns="http://www.w3.org/2000/svg" xmlns:xlink="http://www.w3.org/1999/xlink" x="0px" y="0px"
	 viewBox="0 0 100 40" style="enable-background:new 0 0 100 40;" xml:space="preserve">
<style type="text/css">
	.st0{fill:#FFFFFF;}
	.st1{fill:#FFFFFF;stroke:#FFFFFF;stroke-miterlimit:10;}
</style>
<g>
	<g>
		<path class="st0" d="M29.5,15.7V15h2.3c0,0.4,0,1.5,0,1.9c0.7-1.3,2.1-2,3.5-2c2.4,0,4.3,1.7,4.3,4.4c0,2.6-1.8,4.3-4.3,4.3
			c-1.4,0-2.9-0.7-3.5-2v5.2h1.6v0.7h-3.8v-0.7h1.4V15.7H29.5z M38.9,19.2c0-2.3-1.6-3.6-3.5-3.6c-2.3,0-3.4,1.7-3.4,3.6
			c0,1.9,1.2,3.5,3.5,3.5C37.3,22.8,38.9,21.4,38.9,19.2z"/>
		<path class="st0" d="M43.3,14.9v7.7h1.6v0.8h-4v-0.8h1.6v-6.9h-1.6v-0.8H43.3z M42.2,12.2c0-0.4,0.3-0.6,0.7-0.6
			c0.3,0,0.6,0.2,0.6,0.6s-0.3,0.6-0.7,0.6C42.6,12.8,42.2,12.7,42.2,12.2z"/>
		<path class="st0" d="M45.9,23.4v-0.7h1.2l2.7-3.7l-2.4-3.3h-1.2V15h2.1v0.7l2,2.8l1.3-1.8l0.8-1h-1.3V15h3.3v0.7h-1.1L50.9,19
			l2.7,3.6h1.2v0.7h-2.1v-0.7l-2.3-3.1L49,21.3l-1,1.3h1.4v0.7H45.9z"/>
		<path class="st0" d="M58.4,22.6h1.5v0.8h-3.8v-0.8h1.5v-6.9h-1.5V15h2.3l0,1.7c0.7-1.4,2-1.9,3.2-1.9c2.4,0,3.7,1.4,3.7,3.7v4.1
			h1.6v0.8H63v-0.8h1.4v-4.1c0-2-1-3-2.9-3c-1.8,0-3.1,1.4-3.1,3.1V22.6z"/>
		<path class="st0" d="M77.6,22.6v0.8h-2.3c0-0.4-0.1-1.3-0.1-1.8c-0.7,1.4-2.2,2-3.5,2c-2.4,0-4.3-1.7-4.3-4.4
			c0-2.7,1.9-4.3,4.3-4.3c1.4,0,2.9,0.7,3.5,2V15h2.3v0.8H76v6.9H77.6z M68.3,19.2c0,2.2,1.6,3.6,3.5,3.6c2.3,0,3.5-1.8,3.5-3.6
			c0-1.8-1.2-3.6-3.5-3.6C69.8,15.6,68.3,17,68.3,19.2z"/>
		<path class="st0" d="M78.9,23.4v-0.8h1.6V12.2h-1.6v-0.7h2.4v5.4c0.8-1.5,2.2-2,3.5-2c2.3,0,4.3,1.7,4.3,4.3
			c0,2.7-1.9,4.3-4.3,4.3c-1.5,0-2.8-0.6-3.5-2l0,1.8H78.9z M81.3,19.2c0,1.9,1.2,3.6,3.4,3.6c1.9,0,3.5-1.3,3.5-3.6
			c0-2.3-1.6-3.6-3.5-3.6C82.5,15.6,81.3,17.3,81.3,19.2z"/>
		<path class="st0" d="M93.3,14.9v7.7h1.6v0.8h-4v-0.8h1.6v-6.9h-1.6v-0.8H93.3z M92.2,12.2c0-0.4,0.3-0.6,0.7-0.6
			c0.3,0,0.6,0.2,0.6,0.6s-0.3,0.6-0.7,0.6C92.6,12.8,92.2,12.7,92.2,12.2z"/>
	</g>
	<g>
		<g>
			<g>
				<rect x="5" y="22.8" class="st1" width="3.9" height="3.9"/>
				<rect x="8.9" y="22.8" class="st1" width="3.9" height="3.9"/>
				<rect x="5" y="18.9" class="st1" width="3.9" height="3.9"/>
			</g>
			<g>
				<rect x="19.5" y="8.3" class="st1" width="3.9" height="3.9"/>
				<rect x="19.5" y="12.2" class="st1" width="3.9" height="3.9"/>
				<rect x="15.6" y="8.3" class="st1" width="3.9" height="3.9"/>
			</g>
		</g>
		<g>
			<g>
				<rect x="5" y="10.5" class="st1" width="3.9" height="3.9"/>
				<rect x="5" y="14.4" class="st1" width="3.9" height="3.9"/>
				<rect x="8.9" y="10.5" class="st1" width="3.9" height="3.9"/>
			</g>
			<g>
				<rect x="17.3" y="22.8" class="st1" width="3.9" height="3.9"/>
				<rect x="13.4" y="22.8" class="st1" width="3.9" height="3.9"/>
				<rect x="17.3" y="18.9" class="st1" width="3.9" height="3.9"/>
			</g>
		</g>
	</g>
</g>
<g>
	<path class="st0" d="M74.9,32.5c-0.1,0-0.3,0-0.4,0c-0.6-0.1-0.6-0.6-0.6-1V31c0-0.4,0-0.8-0.5-0.8v-0.4c0.1,0,0.2,0,0.3-0.1
		c0.2-0.1,0.2-0.5,0.2-0.7v-0.5c0-0.5,0.1-0.9,0.6-1c0.2,0,0.3,0,0.5,0v0.4l-0.1,0c-0.5,0-0.5,0.3-0.5,0.8v0.2c0,0.4,0.1,1-0.5,1.2
		v0c0.5,0.1,0.5,0.7,0.5,1.2v0.3c0,0.4,0.1,0.6,0.5,0.7l0.1,0L74.9,32.5L74.9,32.5z"/>
	<path class="st0" d="M75.4,31.5v-4h0.5v3.5H77v0.4H75.4z"/>
	<path class="st0" d="M78.7,31.3c-0.1,0.1-0.3,0.3-0.6,0.3c-0.3,0-0.6-0.1-0.7-0.4c-0.1-0.2-0.1-0.4-0.1-0.8c0-0.2,0-0.4,0-0.5
		c0-0.2,0-0.3,0-0.5c0-0.3,0.1-0.5,0.2-0.6c0.2-0.2,0.4-0.2,0.5-0.2c0.2,0,0.4,0,0.5,0.2c0,0,0.1,0.1,0.2,0.2
		c0.1,0.2,0.1,0.5,0.1,0.8v0.4h-1.1c0,0.2,0,0.3,0,0.5c0,0.1,0,0.2,0,0.3c0.1,0.2,0.2,0.2,0.3,0.2c0,0,0.1,0,0.2-0.1
		c0.1-0.1,0.1-0.2,0.1-0.5h0.4C78.9,30.9,78.9,31.1,78.7,31.3z M78.5,29.7c0-0.1,0-0.2,0-0.3c0-0.2-0.1-0.4-0.4-0.4
		c-0.1,0-0.2,0.1-0.3,0.2c-0.1,0.1-0.1,0.3-0.1,0.5v0.1h0.7V29.7z"/>
	<path class="st0" d="M80.3,31.5c-0.1,0-0.2,0-0.3,0c0,0-0.3,0-0.5-0.1c-0.2-0.2-0.1-0.4-0.1-0.6c0-0.1,0-0.1,0-0.2V29h-0.3v-0.3
		h0.3v-0.8h0.5v0.8h0.4V29h-0.4v1.8c0,0.1,0,0.2,0.1,0.2c0,0.1,0.1,0.1,0.2,0.1c0,0,0.1,0,0.2,0L80.3,31.5z"/>
	<path class="st0" d="M80.6,29v-0.3c0.2-0.1,0.2-0.2,0.2-0.4c0,0,0-0.1,0-0.1h-0.2v-0.7h0.5v0.7C81.1,28.6,81,28.9,80.6,29z"/>
	<path class="st0" d="M82.3,31.5c-0.1,0-0.3,0-0.3,0c-0.4,0-0.5-0.1-0.6-0.3c-0.1-0.2-0.1-0.4-0.1-0.8h0.4c0,0.1,0,0.2,0,0.3
		c0,0.1,0,0.2,0,0.2c0.1,0.2,0.3,0.2,0.3,0.2c0.2,0,0.3-0.1,0.3-0.3c0-0.2-0.1-0.4-0.3-0.5L81.7,30c-0.2-0.2-0.4-0.4-0.4-0.7
		c0-0.1,0-0.3,0.1-0.5c0.1-0.1,0.2-0.2,0.2-0.2c0.1,0,0.2-0.1,0.3-0.1c0.1,0,0.4,0,0.5,0.2c0.1,0.1,0.1,0.1,0.1,0.2
		c0.1,0.1,0.1,0.2,0.1,0.5h-0.4c0-0.1,0-0.2,0-0.3c0-0.1-0.1-0.2-0.3-0.2c-0.1,0-0.3,0-0.3,0.3c0,0,0,0.1,0,0.1
		c0.1,0.1,0.2,0.2,0.3,0.3l0.3,0.3c0.1,0.1,0.1,0.1,0.2,0.1c0.2,0.2,0.2,0.5,0.2,0.6C82.8,31.3,82.5,31.4,82.3,31.5z"/>
	<path class="st0" d="M85.7,31.3c-0.2,0.2-0.4,0.2-0.6,0.2c-0.4,0-0.6-0.2-0.7-0.3c-0.1-0.2-0.1-0.5-0.1-1c0-0.3,0-0.5,0-0.8
		c0,0,0-0.4,0.2-0.6c0.2-0.2,0.4-0.2,0.6-0.2c0.3,0,0.5,0.1,0.7,0.3c0.1,0.2,0.1,0.4,0.1,0.8h-0.4c0-0.1,0-0.2,0-0.4
		c0,0,0-0.1-0.1-0.2C85.3,29,85.2,29,85.1,29c-0.3,0-0.3,0.2-0.3,0.3c0,0.1,0,0.5,0,0.8c0,0.2,0,0.4,0,0.6c0,0,0,0.2,0.1,0.3
		c0.1,0.2,0.2,0.2,0.3,0.2c0.1,0,0.3-0.1,0.3-0.3c0,0,0-0.2,0-0.4h0.4C85.9,30.9,85.9,31.1,85.7,31.3z"/>
	<path class="st0" d="M87.9,30.7c0,0.2,0,0.2,0,0.3c0,0.3-0.2,0.6-0.8,0.6c-0.3,0-0.5-0.1-0.7-0.3c-0.1-0.2-0.1-0.4-0.1-0.6v-0.4
		c0-0.2,0-0.5,0-0.7c0-0.2,0-0.5,0.2-0.7c0.1-0.1,0.3-0.2,0.6-0.2c0.8,0,0.8,0.6,0.8,0.9c0,0.2,0,0.4,0,0.6
		C87.9,30.3,87.9,30.5,87.9,30.7z M87.4,29.5c0-0.2,0-0.5-0.3-0.5c-0.2,0-0.3,0.2-0.3,0.3c0,0.1,0,0.4,0,0.7c0,0.2,0,0.5,0,0.7
		c0,0.2,0,0.3,0,0.4c0,0.1,0.1,0.2,0.3,0.2c0.2,0,0.3-0.1,0.3-0.3c0-0.1,0-0.4,0-0.8C87.4,29.9,87.4,29.7,87.4,29.5z"/>
	<path class="st0" d="M89.5,31.5v-0.3c0,0.1-0.1,0.1-0.1,0.1c-0.2,0.2-0.4,0.2-0.5,0.2c-0.5,0-0.6-0.4-0.6-0.6c0-0.1,0-0.5,0-0.9
		c0-0.2,0-0.4,0-0.6c0-0.2,0-0.4,0.1-0.5c0.1-0.2,0.3-0.4,0.6-0.4c0.1,0,0.3,0,0.4,0.1c0.1,0.1,0.1,0.1,0.1,0.1v-1.4h0.5v4H89.5z
		 M89.5,29.6c0-0.1,0-0.3-0.1-0.4C89.3,29,89.2,29,89.1,29c0,0-0.1,0-0.2,0.1c-0.2,0.1-0.2,0.4-0.2,0.6c0,0.1,0,0.3,0,0.4
		c0,0.2,0,0.4,0,0.6c0,0.2,0,0.2,0,0.3c0,0.1,0.1,0.2,0.3,0.2c0.1,0,0.1,0,0.1,0c0.1,0,0.2-0.1,0.2-0.3c0-0.2,0.1-0.4,0.1-0.8
		C89.5,29.9,89.5,29.7,89.5,29.6z"/>
	<path class="st0" d="M91.8,31.3c-0.1,0.1-0.3,0.3-0.6,0.3c-0.3,0-0.6-0.1-0.7-0.4c-0.1-0.2-0.1-0.4-0.1-0.8c0-0.2,0-0.4,0-0.5
		c0-0.2,0-0.3,0-0.5c0-0.3,0.1-0.5,0.2-0.6c0.2-0.2,0.4-0.2,0.5-0.2c0.2,0,0.4,0,0.5,0.2c0,0,0.1,0.1,0.2,0.2
		c0.1,0.2,0.1,0.5,0.1,0.8v0.4h-1.1c0,0.2,0,0.3,0,0.5c0,0.1,0,0.2,0,0.3c0.1,0.2,0.2,0.2,0.3,0.2c0,0,0.1,0,0.2-0.1
		c0.1-0.1,0.1-0.2,0.1-0.5H92C92,30.9,92,31.1,91.8,31.3z M91.6,29.7c0-0.1,0-0.2,0-0.3c0-0.2-0.1-0.4-0.4-0.4
		c-0.1,0-0.2,0.1-0.3,0.2c-0.1,0.1-0.1,0.3-0.1,0.5v0.1h0.7V29.7z"/>
	<path class="st0" d="M92.4,31.5v-0.7h0.5v0.7H92.4z"/>
	<path class="st0" d="M94.5,30.9v0.4c0,0.5,0,0.9-0.6,1.1c-0.2,0-0.3,0-0.5,0v-0.4l0.1,0c0.5,0,0.5-0.3,0.5-0.7c0-0.2,0-0.4,0-0.6
		c0-0.3,0.1-0.7,0.5-0.8v0c-0.1,0-0.1,0-0.2-0.1C94,29.7,94,29.1,94,28.8v-0.3c0-0.4-0.1-0.6-0.5-0.7l-0.1,0v-0.4
		c0.5,0,0.9,0.1,1,0.6c0.1,0.2,0,0.6,0,0.9c0,0.3,0,0.7,0.3,0.8c0.1,0,0.1,0,0.2,0v0.4C94.5,30.2,94.5,30.6,94.5,30.9z"/>
</g>
</svg>
