<?xml version="1.0" encoding="utf-8"?>
<!-- Generator: Adobe Illustrator 21.0.1, SVG Export Plug-In . SVG Version: 6.00 Build 0)  -->
<svg version="1.1" id="Layer_1" xmlns="http://www.w3.org/2000/svg" xmlns:xlink="http://www.w3.org/1999/xlink" x="0px" y="0px"
	 viewBox="0 0 76 80" style="enable-background:new 0 0 76 80;" xml:space="preserve">
<style type="text/css">
	.st0{fill:#37B34A;}
</style>
<g>
	<path class="st0" d="M45,56.8c1.6-3.4,3.1-6.8,4.6-10.2c1.6-3.6,3.3-7.2,4.9-10.8c0.8-1.8,0.4-3.4-0.8-4.9c-0.6-0.7-1.5-0.6-2,0.2
		c-0.1,0.1-0.1,0.3-0.2,0.4c-3.4,7.4-6.8,14.8-10.2,22.3c-0.1,0.3-0.2,0.3-0.5,0.3c-1.7-0.4-3.4,0.2-4.8,1.2V39.2
		c0-2.8-2.1-5.2-4.9-5.5H16.9C14.2,34,12,36.4,12,39.2v27c0,0.8,0.7,1.5,1.5,1.5h21c0.8,0,1.5-0.7,1.5-1.5v-1.8
		c1.2,1,2.8,1.5,4.5,1.2c3.7-0.5,6-4.6,4.5-8.1C44.9,57.3,44.8,57.1,45,56.8z M25.1,44.8c0.4-1.4,1.6-2.3,2.7-2
		c1.1,0.3,1.7,1.7,1.3,3.1c-0.4,1.4-1.6,2.3-2.7,2C25.3,47.6,24.7,46.2,25.1,44.8z M21.2,42.8c1.1-0.3,2.3,0.6,2.7,2
		c0.4,1.4-0.2,2.8-1.3,3.1c-1.1,0.3-2.3-0.6-2.7-2C19.5,44.5,20,43.1,21.2,42.8z M17.1,50.6c-0.2-0.4-0.2-0.8-0.2-1.2v0
		c0-0.9,0.4-1.7,1.2-2c1.1-0.4,2.4,0.3,2.9,1.7c0.5,1.3,0.1,2.8-0.9,3.2C18.9,52.7,17.6,51.9,17.1,50.6z M27.2,56.8
		c-0.9-0.2-2.7-0.3-2.7-0.3s-1.8,0-2.7,0.3c-0.9,0.2-2.9-0.2-2.5-2c0.4-1.9,2.2-1.8,2.7-4.3c0.5-2.5,2.6-2.4,2.6-2.4
		s2.1-0.2,2.6,2.4c0.5,2.5,2.3,2.5,2.7,4.3C30.2,56.6,28.1,57,27.2,56.8z M31.9,50.6c-0.5,1.3-1.9,2.1-2.9,1.6
		c-1.1-0.4-1.5-1.9-0.9-3.2c0.5-1.3,1.9-2.1,2.9-1.7C32.1,47.8,32.5,49.3,31.9,50.6z M39.6,63.4c-1.9,0-3.5-1.6-3.5-3.5
		c0-1.9,1.6-3.5,3.5-3.5c1.9,0,3.5,1.6,3.5,3.5C43.1,61.8,41.5,63.4,39.6,63.4z"/>
	<path class="st0" d="M73.8,34.2c0-2.2-1.5-3.7-3.7-3.7c-2.3,0-4.6,0-6.9,0c-0.8,0-1.3,0.5-1.3,1.2c0,0.7,0.5,1.2,1.3,1.2
		c1.1,0,2.2,0,3.2,0c0.2,0,0.3,0.1,0.3,0.3c0,0.6,0,1.2,0,1.8c0,0.3-0.1,0.3-0.3,0.3c-1.1,0-2.1,0-3.2,0c-0.8,0-1.3,0.5-1.3,1.2
		c0,0.7,0.5,1.2,1.3,1.2c1.1,0,2.1,0,3.2,0c0.2,0,0.3,0,0.3,0.3c0,0.6,0,1.1,0,1.7c0,0.3,0,0.4-0.4,0.4c-1,0-2.1,0-3.1,0
		c-0.9,0-1.4,0.4-1.4,1.2c0,0.7,0.5,1.2,1.4,1.2c1,0,2.1,0,3.1,0c0.2,0,0.3,0,0.3,0.3c0,0.6,0,1.2,0,1.8c0,0.3-0.1,0.3-0.3,0.3
		c-1.1,0-2.2,0-3.2,0c-0.8,0-1.3,0.5-1.3,1.2c0,0.7,0.5,1.2,1.3,1.2c1.1,0,2.2,0,3.2,0c0.2,0,0.3,0.1,0.3,0.3c0,0.6,0,1.2,0,1.8
		c0,0.2-0.1,0.3-0.3,0.3c-1.1,0-2.2,0-3.3,0c-0.4,0-0.7,0.1-0.9,0.4c-0.3,0.4-0.4,0.8-0.2,1.2c0.2,0.5,0.6,0.7,1.1,0.7
		c1.1,0,2.2,0,3.3,0c0.2,0,0.3,0,0.3,0.3c0,0.6,0,1.2,0,1.8c0,0.2,0,0.3-0.3,0.3c-1.1,0-2.1,0-3.2,0c-0.8,0-1.4,0.5-1.3,1.2
		c0,0.7,0.5,1.2,1.3,1.2c1.1,0,2.1,0,3.2,0c0.2,0,0.3,0,0.3,0.3c0,0.6,0,1.2,0,1.8c0,0.3-0.1,0.3-0.3,0.3c-1.1,0-2.1,0-3.2,0
		c-0.8,0-1.3,0.5-1.3,1.2c0,0.7,0.5,1.2,1.3,1.2c1.1,0,2.1,0,3.2,0c0.3,0,0.3,0.1,0.3,0.3c0,0.6,0,1.1,0,1.7c0,0.3-0.1,0.3-0.3,0.3
		c-1.1,0-2.2,0-3.2,0c-0.8,0-1.3,0.5-1.3,1.2c0,0.7,0.5,1.2,1.3,1.2c2.3,0,4.6,0,7,0c0.6,0,1.1-0.1,1.6-0.4c1.4-0.7,2-1.8,2-3.3
		c0-4.6,0-9.2,0-13.9C73.8,43.5,73.8,38.9,73.8,34.2z"/>
	<path class="st0" d="M52.5,54.1c-0.2,0.1-0.4,0-0.5-0.2c-0.3-0.7-0.7-1.5-1-2.2c-0.2-0.4-0.4-0.8-0.6-1.3c-0.7,1.6-1.4,3.1-2.1,4.7
		c-0.3,0.6-0.4,1.2,0,1.8c0.2,0.2,0.1,0.4,0,0.7c-0.2,0.3-0.3,0.7-0.4,1c-0.9,4.1,2.4,7.7,6.6,7.1c3.6-0.5,5.9-4.2,4.7-7.6
		C58.3,55.2,55.3,53.5,52.5,54.1z M53.7,63.4c-1.9,0-3.5-1.6-3.5-3.5c0-1.9,1.6-3.5,3.5-3.5c1.9,0,3.5,1.6,3.5,3.5
		C57.2,61.8,55.6,63.4,53.7,63.4z"/>
	<path class="st0" d="M41.5,41.8c0.4,1,0.9,2,1.4,3c0.8-1.8,1.6-3.5,2.4-5.3c0.1-0.2,0-0.3-0.1-0.5c-0.5-1.2-1.1-2.3-1.6-3.5
		c-0.7-1.4-1.3-2.8-2-4.2c-0.4-0.9-1.4-1-2-0.3c-1.3,1.5-1.6,3.1-0.9,4.9C39.6,37.9,40.6,39.8,41.5,41.8z"/>
	<circle class="st0" cx="7.6" cy="30.7" r="3.5"/>
	<circle class="st0" cx="3.1" cy="48.2" r="1.9"/>
	<circle class="st0" cx="6.6" cy="40" r="2.5"/>
	<path class="st0" d="M13.4,29.1c0.8,0,1.5-0.7,1.5-1.5v-0.9c0-0.5,0.4-0.9,0.9-0.9h4.3c0,0,0,0,0,0v0.9c0,0.8,0.7,1.5,1.5,1.5h0.9
		v1.9h-3.7c-0.8,0-1.5,0.7-1.5,1.5v2.1h13.3v-2.1c0-0.8-0.7-1.5-1.5-1.5h-3.7v-1.9h0.9c0.8,0,1.5-0.7,1.5-1.5V22
		c0-0.8-0.7-1.5-1.5-1.5h-4.7c-0.8,0-1.5,0.7-1.5,1.5v0.9c0,0,0,0,0,0h-4.3c-2.1,0-3.8,1.7-3.8,3.8v0.9C12,28.5,12.6,29.1,13.4,29.1
		z"/>
</g>
</svg>
